<?xml version="1.0" standalone="no"?>
<!DOCTYPE svg PUBLIC "-//W3C//DTD SVG 1.1//EN" "http://www.w3.org/Graphics/SVG/1.1/DTD/svg11.dtd" >
<svg xmlns="http://www.w3.org/2000/svg">
<metadata></metadata>
<defs>
<font id="dynoregular" horiz-adv-x="1000" >
<font-face units-per-em="2048" ascent="1638" descent="-410" />
<missing-glyph horiz-adv-x="600" />
<glyph unicode=" "  horiz-adv-x="600" />
<glyph unicode="&#x09;" horiz-adv-x="600" />
<glyph unicode="&#xa0;" horiz-adv-x="600" />
<glyph unicode="!" horiz-adv-x="450" d="M115 1391h220l-20 -1000h-190zM100 244h250v-250h-250v250z" />
<glyph unicode="&#x22;" horiz-adv-x="700" d="M300 1450q0 -251 -30 -450h-140q-30 199 -30 450h200zM600 1450q0 -251 -30 -450h-140q-30 199 -30 450h200z" />
<glyph unicode="#" horiz-adv-x="1400" d="M200 1100h236l64 300h199l-64 -300h301l64 300h199l-64 -300h165v-200h-208l-86 -400h194v-200h-236l-64 -300h-200l64 300h-300l-64 -300h-200l64 300h-164v200h207l86 400h-193v200zM592 900l-86 -400h301l86 400h-301z" />
<glyph unicode="$" horiz-adv-x="1077" d="M470 1600h150v-200q179 -2 308 -61l-46 -185q-60 22 -124.5 33.5t-137.5 12.5v-410q357 -68 357 -390q0 -349 -357 -394v-206h-150v200q-225 5 -370 66l52 192q129 -44 318 -56v412q-343 73 -343 386q0 338 343 390v210zM620 211q157 36 157 189q0 127 -157 182v-371z M470 1184q-143 -41 -143 -184q0 -119 143 -175v359z" />
<glyph unicode="%" horiz-adv-x="1500" d="M1000 1400h200l-700 -1400h-200zM100 1100q0 61 24 116t64.5 95.5t95 64.5t116.5 24q61 0 116 -24t95.5 -64.5t64.5 -95.5t24 -116q0 -62 -24 -116.5t-64.5 -95t-95.5 -64.5t-116 -24q-62 0 -116.5 24t-95 64.5t-64.5 95t-24 116.5zM400 1229q-27 0 -50 -10.5t-40.5 -28 t-27.5 -41t-10 -49.5q0 -27 10 -50t27.5 -40.5t40.5 -27.5t50 -10q26 0 49.5 10t41 27.5t28 40.5t10.5 50q0 26 -10.5 49.5t-28 41t-41 28t-49.5 10.5zM800 300q0 61 24 116t64.5 95.5t95 64.5t116.5 24q61 0 116 -24t95.5 -64.5t64.5 -95.5t24 -116q0 -62 -24 -116.5 t-64.5 -95t-95.5 -64.5t-116 -24q-62 0 -116.5 24t-95 64.5t-64.5 95t-24 116.5zM1100 429q-27 0 -50 -10.5t-40.5 -28t-27.5 -41t-10 -49.5q0 -27 10 -50t27.5 -40.5t40.5 -27.5t50 -10q26 0 49.5 10t41 27.5t28 40.5t10.5 50q0 26 -10.5 49.5t-28 41t-41 28t-49.5 10.5z " />
<glyph unicode="&#x26;" horiz-adv-x="1250" d="M900 1160q-98 40 -300 40q-300 0 -300 -200t300 -210h200v160l200 50v-210h150v-180h-150v-510q-199 -100 -400 -100q-500 0 -500 400q0 199 200 300q-200 101 -200 300q0 400 500 400q197 0 350 -50zM600 610q-300 -11 -300 -210q0 -200 300 -200q102 0 200 40v370h-200 z" />
<glyph unicode="'" horiz-adv-x="400" d="M300 1450q0 -251 -30 -450h-140q-30 199 -30 450h200z" />
<glyph unicode="(" horiz-adv-x="670" d="M570 1550q-60 -54 -109.5 -138t-85.5 -192.5t-55.5 -240t-19.5 -279.5q0 -149 19.5 -280t55.5 -239.5t85.5 -192.5t109.5 -138l-120 -100q-90 75 -156 177t-109 224.5t-64 261t-21 287.5q0 148 21 287t64 261t109 224.5t156 177.5z" />
<glyph unicode=")" horiz-adv-x="670" d="M220 1650q90 -75 155.5 -177t109 -224.5t64.5 -261.5t21 -287q0 -149 -21 -288t-64.5 -261t-109 -224t-155.5 -177l-120 100q60 54 109.5 138t85.5 192.5t55.5 239.5t19.5 280q0 148 -19.5 279.5t-55.5 240t-85.5 192.5t-109.5 138z" />
<glyph unicode="*" horiz-adv-x="840" d="M140 1410l190 -50v190h170v-190l200 50l40 -150l-180 -50l130 -180l-130 -80l-140 170l-140 -170l-130 80l130 180l-180 50z" />
<glyph unicode="+" d="M100 800h300v300h200v-300h300v-200h-300v-300h-200v300h-300v200z" />
<glyph unicode="," horiz-adv-x="400" d="M100 250h200v-250q0 -151 -150 -200l-50 80q100 70 100 120h-100v250z" />
<glyph unicode="-" horiz-adv-x="800" d="M100 800h600v-200h-600v200z" />
<glyph unicode="." horiz-adv-x="400" d="M100 250h200v-250h-200v250z" />
<glyph unicode="/" horiz-adv-x="601" d="M446 1600h199l-499 -1800h-200z" />
<glyph unicode="0" horiz-adv-x="1200" d="M600 1200q-300 0 -300 -500t300 -500t300 500t-300 500zM100 700q0 700 500 700t500 -700t-500 -700t-500 700z" />
<glyph unicode="1" horiz-adv-x="600" d="M200 1350l200 50v-1400h-200v1350z" />
<glyph unicode="2" horiz-adv-x="1001" d="M100 1339q161 61 371 61q430 0 430 -400q0 -251 -300 -420q-300 -170 -300 -380h600v-200h-800v200q0 319 300 480q300 160 300 320q0 200 -230 200q-176 0 -315 -46z" />
<glyph unicode="3" horiz-adv-x="1050" d="M100 1350q153 50 350 50q500 0 500 -400q0 -199 -200 -300q200 -101 200 -300q0 -400 -500 -400q-197 0 -350 50l50 190q98 -40 300 -40q300 0 300 200q0 199 -300 210h-120v180h120q300 10 300 210t-300 200q-202 0 -300 -40z" />
<glyph unicode="4" horiz-adv-x="1150" d="M670 1400h230v-800h150v-200h-150v-400h-200v400h-600v200zM700 1100l-350 -500h350v500z" />
<glyph unicode="5" horiz-adv-x="1070" d="M100 1400h820v-200h-590l-10 -400q100 100 250 100q400 0 400 -440q0 -460 -500 -460q-206 0 -370 50l70 200q103 -50 300 -50q300 0 300 260q0 240 -200 240q-150 0 -300 -150l-170 50v800z" />
<glyph unicode="6" horiz-adv-x="1100" d="M100 800q0 600 500 600q147 0 300 -50l-50 -190q-98 40 -250 40q-300 0 -300 -400q100 100 300 100q400 0 400 -450t-450 -450t-450 500v300zM300 500q0 -300 250 -300t250 250t-200 250t-300 -100v-100z" />
<glyph unicode="7" horiz-adv-x="1040" d="M100 1400h840v-200l-440 -1200h-230l440 1200h-610v200z" />
<glyph unicode="8" horiz-adv-x="1100" d="M550 600q-250 0 -250 -200t250 -200t250 200t-250 200zM550 1200q-230 0 -230 -200t230 -200t230 200t-230 200zM100 400q0 220 200 300q-180 79 -180 300q0 400 430 400t430 -400q0 -221 -180 -300q200 -80 200 -300q0 -400 -450 -400t-450 400z" />
<glyph unicode="9" horiz-adv-x="1100" d="M250 240q98 -40 250 -40q300 0 300 400q-100 -100 -300 -100q-400 0 -400 450t450 450t450 -500v-300q0 -600 -500 -600q-147 0 -300 50zM800 900q0 300 -250 300t-250 -250t200 -250t300 100v100z" />
<glyph unicode=":" horiz-adv-x="400" d="M100 250h200v-250h-200v250zM100 1078h200v-250h-200v250z" />
<glyph unicode=";" horiz-adv-x="400" d="M100 250h200v-250q0 -151 -150 -200l-50 80q100 70 100 120h-100v250zM100 1078h200v-250h-200v250z" />
<glyph unicode="&#x3c;" d="M100 820l800 380v-220l-550 -280l550 -280v-220l-800 380v240z" />
<glyph unicode="=" d="M100 1000h800v-200h-800v200zM100 600h800v-200h-800v200z" />
<glyph unicode="&#x3e;" d="M100 1200l800 -380v-240l-800 -380v220l550 280l-550 280v220z" />
<glyph unicode="?" horiz-adv-x="950" d="M100 1350q153 50 300 50q450 0 450 -400q0 -300 -300 -400l-20 -200h-160l-20 350q300 49 300 250q0 200 -250 200q-152 0 -250 -40zM320 244h250v-250h-250v250z" />
<glyph unicode="@" horiz-adv-x="1900" d="M500 650q0 450 400 450q300 0 400 -100v-712q4 -108 100 -108q200 0 200 420q0 700 -650 700t-650 -750t700 -750q150 0 274 12.5t226 37.5l50 -170q-152 -80 -550 -80q-900 0 -900 950t850 950t850 -900q0 -600 -400 -600q-157 0 -232 81q-134 -81 -268 -81 q-400 0 -400 450v200zM1100 880q-51 10 -100 15t-100 5q-200 0 -200 -250v-200q0 -250 200 -250q51 0 100 5t100 15v660z" />
<glyph unicode="A" horiz-adv-x="1100" d="M430 1400h240l430 -1400h-220l-86 300h-488l-86 -300h-220zM550 1150l-187 -650h373z" />
<glyph unicode="B" horiz-adv-x="1150" d="M100 1400h530q400 0 400 -400q0 -200 -180 -300q200 -101 200 -300q0 -400 -400 -400h-550v1400zM300 1200v-400h330q200 0 200 198q0 202 -200 202h-330zM300 600v-400h350q200 0 200 198q0 202 -200 202h-350z" />
<glyph unicode="C" horiz-adv-x="1100" d="M985 1153q-130 47 -335 47q-350 0 -350 -500t350 -500q206 0 336 47l62 -176q-175 -71 -398 -71q-550 0 -550 700t550 700q227 0 400 -72z" />
<glyph unicode="D" horiz-adv-x="1200" d="M300 1200v-1000h250q350 0 350 500t-350 500h-250zM100 1400h450q550 0 550 -700t-550 -700h-450v1400z" />
<glyph unicode="E" d="M100 1400h800v-200h-600v-400h550v-200h-550v-400h600v-200h-800v1400z" />
<glyph unicode="F" d="M100 1400h800v-200h-600v-400h550v-200h-550v-600h-200v1400z" />
<glyph unicode="G" horiz-adv-x="1200" d="M985 1153q-130 47 -335 47q-350 0 -350 -500t350 -500q73 0 135.5 5.5t114.5 16.5v328h-250v200h450v-670l-10 3l8 -12q-175 -71 -448 -71q-550 0 -550 700t550 700q227 0 400 -72z" />
<glyph unicode="H" horiz-adv-x="1150" d="M100 1400h200v-600h550v600h200v-1400h-200v600h-550v-600h-200v1400z" />
<glyph unicode="I" horiz-adv-x="400" d="M100 1400h200v-1400h-200v1400z" />
<glyph unicode="J" horiz-adv-x="650" d="M350 1400h200v-1000q0 -400 -400 -400h-50v200h50q200 0 200 200v1000z" />
<glyph unicode="K" horiz-adv-x="1049" d="M100 1400h200v-699l460 699h240l-460 -700l460 -700h-240l-460 700v-700h-200v1400z" />
<glyph unicode="L" horiz-adv-x="954" d="M100 1400h200v-1200h600v-200h-800v1400z" />
<glyph unicode="M" horiz-adv-x="1500" d="M100 1400h320l330 -1100l330 1100h320v-1400h-200v1100l-330 -1100h-240l-330 1100v-1100h-200v1400z" />
<glyph unicode="N" horiz-adv-x="1150" d="M100 1400h200l550 -990v990h200v-1400h-200l-550 990v-990h-200v1400z" />
<glyph unicode="O" horiz-adv-x="1300" d="M650 1200q-350 0 -350 -500t350 -500t350 500t-350 500zM100 700q0 700 550 700t550 -700t-550 -700t-550 700z" />
<glyph unicode="P" horiz-adv-x="1150" d="M100 1400h450q500 0 500 -450t-500 -450h-250v-500h-200v1400zM300 1200v-500h250q300 0 300 250t-300 250h-250z" />
<glyph unicode="Q" horiz-adv-x="1300" d="M947 73q-118 -73 -297 -73q-550 0 -550 700t550 700t550 -700q0 -318 -114 -492l105 -120l-135 -137zM663 394l145 137l134 -155q58 117 58 324q0 500 -350 500t-350 -500t350 -500q86 0 156 32z" />
<glyph unicode="R" horiz-adv-x="1150" d="M100 1400h450q500 0 500 -450q0 -340 -290 -430l290 -520h-230l-270 500h-250v-500h-200v1400zM300 1200v-500h250q300 0 300 250t-300 250h-250z" />
<glyph unicode="S" horiz-adv-x="1077" d="M882 1154q-119 46 -275 46q-280 0 -280 -200q0 -150 230 -200q420 -50 420 -400q0 -400 -470 -400q-250 0 -407 66l52 192q69 -23 157 -38t198 -20q270 0 270 200q0 151 -220 200q-430 49 -430 400q0 400 480 400q190 0 321 -61z" />
<glyph unicode="T" horiz-adv-x="1100" d="M100 1400h900v-200h-350v-1200h-200v1200h-350v200z" />
<glyph unicode="U" horiz-adv-x="1150" d="M100 1400h200v-900q0 -300 280 -300q270 0 270 300v900h200v-900q0 -500 -470 -500q-480 0 -480 500v900z" />
<glyph unicode="V" horiz-adv-x="1100" d="M0 1400h220l330 -1150l330 1150h220l-430 -1400h-240z" />
<glyph unicode="W" horiz-adv-x="1700" d="M0 1400h220l220 -1100l310 1100h200l310 -1100l220 1100h220l-310 -1400h-240l-300 1000l-300 -1000h-240z" />
<glyph unicode="X" horiz-adv-x="1200" d="M100 1400h230l270 -570l270 570h230l-350 -700l350 -700h-230l-270 570l-270 -570h-230l350 700z" />
<glyph unicode="Y" d="M0 1400h230l270 -570l270 570h230l-400 -800v-600h-200v600z" />
<glyph unicode="Z" horiz-adv-x="1100" d="M130 1400h840v-200l-620 -1000h650v-200h-900v200l620 1000h-590v200z" />
<glyph unicode="[" horiz-adv-x="650" d="M100 1600h450v-200h-250v-1400h250v-200h-450v1800z" />
<glyph unicode="\" horiz-adv-x="601" d="M645 -200h-200l-499 1800h199z" />
<glyph unicode="]" horiz-adv-x="650" d="M100 1600h450v-1800h-450v200h250v1400h-250v200z" />
<glyph unicode="^" d="M400 1550h200l300 -450h-200l-200 300l-200 -300h-200z" />
<glyph unicode="_" horiz-adv-x="800" d="M0 -150h800v-150h-800v150z" />
<glyph unicode="`" horiz-adv-x="470" d="M100 1550h220l50 -300h-150z" />
<glyph unicode="a" d="M175 1034q162 66 325 66q400 0 400 -400v-600q-100 -100 -400 -100q-400 0 -400 340q0 360 600 360q0 200 -200 200q-134 0 -267 -45zM700 500q-400 0 -400 -160q0 -140 200 -140q51 0 100 5t100 15v280z" />
<glyph unicode="b" d="M100 1400l200 50v-380q100 30 200 30q400 0 400 -450v-200q0 -450 -400 -450q-300 0 -400 50v1350zM700 650q0 250 -200 250q-51 0 -100 -5t-100 -15v-660q51 -10 100 -15t100 -5q200 0 200 250v200z" />
<glyph unicode="c" horiz-adv-x="900" d="M100 600q0 500 450 500q197 0 300 -50l-50 -190q-98 40 -250 40q-250 0 -250 -300v-100q0 -300 250 -300q152 0 250 40l50 -190q-103 -50 -300 -50q-450 0 -450 500v100z" />
<glyph unicode="d" d="M700 1400l200 50v-1400q-100 -50 -400 -50q-400 0 -400 450v200q0 450 400 450q99 0 200 -30v330zM700 880q-51 10 -100 15t-100 5q-200 0 -200 -250v-200q0 -250 200 -250q51 0 100 5t100 15v660z" />
<glyph unicode="e" d="M100 600q0 500 430 500q410 0 410 -500q0 -150 -50 -150h-590q0 -250 200 -250q197 0 315 44l38 -185q-104 -59 -353 -59q-400 0 -400 500v100zM740 640q0 260 -210 260q-230 0 -230 -260h440z" />
<glyph unicode="f" horiz-adv-x="845" d="M100 1050h150q0 400 350 400q119 0 190 -50l-50 -180q-71 30 -140 30q-150 0 -150 -200h300v-200h-300v-850h-200v850h-150v200z" />
<glyph unicode="g" d="M100 650q0 450 400 450q300 0 400 -50v-1100q0 -400 -400 -400q-197 0 -350 50l50 200q103 -50 300 -50q200 0 200 200v80q-101 -30 -200 -30q-400 0 -400 450v200zM700 880q-51 10 -100 15t-100 5q-200 0 -200 -250v-200q0 -250 200 -250q51 0 100 5t100 15v660z" />
<glyph unicode="h" d="M100 1395l200 50v-380q100 30 200 30q400 0 400 -450v-645h-200v645q0 250 -200 250q-51 0 -100 -5t-100 -15v-875h-200v1395z" />
<glyph unicode="i" horiz-adv-x="400" d="M100 1100h200v-1100h-200v1100zM100 1500h200v-250h-200v250z" />
<glyph unicode="j" horiz-adv-x="401" d="M101 1100h200v-1150q0 -400 -400 -400h-50v200h50q200 0 200 200v1150zM101 1500h200v-250h-200v250z" />
<glyph unicode="k" horiz-adv-x="952" d="M100 1400l200 50v-899l360 549h240l-360 -550l360 -550h-240l-360 550v-550h-200v1400z" />
<glyph unicode="l" horiz-adv-x="400" d="M100 1400l200 50v-1450h-200v1400z" />
<glyph unicode="m" horiz-adv-x="1500" d="M100 1050q103 50 400 50q146 0 232 -71q113 71 318 71q350 0 350 -400v-700h-200v700q0 200 -150 200q-97 0 -200 -50v-850h-200v700q0 200 -150 200q-51 0 -100 -5t-100 -15v-880h-200v1050z" />
<glyph unicode="n" d="M100 1050q103 50 400 50q400 0 400 -400v-700h-200v700q0 200 -200 200q-51 0 -100 -5t-100 -15v-880h-200v1050z" />
<glyph unicode="o" horiz-adv-x="1100" d="M100 600q0 500 450 500t450 -500v-100q0 -500 -450 -500t-450 500v100zM300 500q0 -300 250 -300t250 300v100q0 300 -250 300t-250 -300v-100z" />
<glyph unicode="p" d="M100 1050q100 50 400 50q400 0 400 -450v-200q0 -450 -400 -450q-100 0 -200 30v-430l-200 -50v1500zM700 650q0 250 -200 250q-51 0 -100 -5t-100 -15v-660q51 -10 100 -15t100 -5q200 0 200 250v200z" />
<glyph unicode="q" d="M100 650q0 450 400 450q300 0 400 -50v-1450l-200 -50v480q-101 -30 -200 -30q-400 0 -400 450v200zM700 880q-51 10 -100 15t-100 5q-200 0 -200 -250v-200q0 -250 200 -250q51 0 100 5t100 15v660z" />
<glyph unicode="r" horiz-adv-x="660" d="M100 1050q103 50 400 50q69 0 126 -12l-45 -198q-33 10 -81 10q-51 0 -100 -5t-100 -15v-880h-200v1050z" />
<glyph unicode="s" horiz-adv-x="954" d="M150 240q127 -40 350 -40q200 0 200 120q0 100 -200 130q-380 30 -380 330q0 320 380 320q147 0 330 -50l-50 -190q-127 40 -280 40q-180 0 -180 -120q0 -100 180 -130q400 -30 400 -330q0 -320 -400 -320q-217 0 -400 50z" />
<glyph unicode="t" horiz-adv-x="850" d="M250 1400l200 50v-350h300v-200h-300v-500q0 -200 150 -200q69 0 140 30l50 -180q-71 -50 -190 -50q-350 0 -350 400v500h-150v200h150v300z" />
<glyph unicode="u" d="M100 1100h200v-700q0 -200 200 -200q51 0 100 5t100 15v880h200v-1000q-100 -100 -400 -100q-400 0 -400 400v700z" />
<glyph unicode="v" horiz-adv-x="900" d="M0 1100h220l230 -850l230 850h220l-330 -1100h-240z" />
<glyph unicode="w" horiz-adv-x="1400" d="M0 1100h220l160 -780l210 780h220l210 -780l160 780h220l-260 -1100h-230l-210 770l-210 -770h-230z" />
<glyph unicode="x" horiz-adv-x="1100" d="M100 1100h230l220 -420l220 420h230l-300 -550l300 -550h-230l-220 420l-220 -420h-230l300 550z" />
<glyph unicode="y" d="M100 1100h200v-650q0 -250 200 -250q51 0 100 5t100 15v880h200v-1150q0 -400 -400 -400q-197 0 -350 50l50 200q103 -50 300 -50q200 0 200 200v80q-101 -30 -200 -30q-400 0 -400 450v650z" />
<glyph unicode="z" horiz-adv-x="950" d="M120 1100h710v-200l-500 -700h520v-200h-750v200l500 700h-480v200z" />
<glyph unicode="{" horiz-adv-x="800" d="M300 1200q0 400 400 400v-200q-200 0 -200 -200v-300q0 -151 -150 -200q150 -50 150 -200v-300q0 -200 200 -200v-200q-400 0 -400 400v300q0 100 -200 100v200q200 0 200 100v300z" />
<glyph unicode="|" horiz-adv-x="400" d="M100 1600h200v-1800h-200v1800z" />
<glyph unicode="}" horiz-adv-x="800" d="M500 200q0 -400 -400 -400v200q200 0 200 200v300q0 151 150 200q-150 50 -150 200v300q0 200 -200 200v200q400 0 400 -400v-300q0 -100 200 -100v-200q-200 0 -200 -100v-300z" />
<glyph unicode="~" horiz-adv-x="1002" d="M100 550q0 300 266 300q58 0 147 -65t148 -65q91 0 106 130h135q0 -300 -266 -300q-59 0 -148 65t-147 65q-91 0 -106 -130h-135z" />
<glyph unicode="&#xa1;" horiz-adv-x="450" d="M335.014 -296.83h-219.973l19.9971 999.878h189.978zM350.012 850.029h-249.969v249.97h249.969v-249.97z" />
<glyph unicode="&#xa2;" horiz-adv-x="950" d="M470 1400h150v-302q148 -8 230 -48l-50 -190q-38 14 -82.5 23.5t-97.5 13.5v-695q52 4 97 13t83 25l50 -190q-42 -20 -98.5 -32.5t-131.5 -16.5v-301h-150v304q-370 42 -370 496v100q0 453 370 495v305zM470 891q-170 -44 -170 -291v-100q0 -247 170 -291v682z" />
<glyph unicode="&#xa3;" horiz-adv-x="1100" d="M100 800h150v100q0 500 500 500q97 0 250 -50l-50 -200q-103 50 -200 50q-300 0 -300 -300v-100h400v-200h-400v-400h550v-200h-900v200h150v400h-150v200z" />
<glyph unicode="&#xa5;" horiz-adv-x="1200" d="M100 1400h230l270 -570l270 570h230l-325 -650h275v-180h-350v-140h350v-180h-350v-250h-200v250h-350v180h350v140h-350v180h275z" />
<glyph unicode="&#xa6;" horiz-adv-x="400" d="M100 1600h200v-800h-200v800zM100 600h200v-800h-200v800z" />
<glyph unicode="&#xa8;" horiz-adv-x="800" d="M100 1500h200v-250h-200v250zM500 1500h200v-250h-200v250z" />
<glyph unicode="&#xa9;" horiz-adv-x="1400" d="M1295 698q0 -248 -175 -423t-422 -175q-248 0 -423 175t-175 423q0 247 175 422t423 175q247 0 422 -175t175 -422zM698 1155q-189 0 -323 -134t-134 -323t134 -323t323 -134t323 134t134 323t-134 323t-323 134zM860 767q-12 30 -38 55q-51 52 -124 52t-124.5 -51.5 t-51.5 -124.5t51.5 -124.5t124.5 -51.5t124 51q28 28 40 61h146q-18 -91 -87 -160q-92 -93 -223 -93t-224 93t-93 224t93 223.5t224 92.5t223 -93q68 -67 86 -154h-147z" />
<glyph unicode="&#xab;" horiz-adv-x="1221" d="M427 1200h240l-327 -500l330 -504h-240l-330 504zM879 1200h240l-327 -500l329 -504h-240l-329 504z" />
<glyph unicode="&#xac;" horiz-adv-x="900" d="M100 800h700v-500h-200v300h-500v200z" />
<glyph unicode="&#xae;" horiz-adv-x="1389" d="M1295 693q0 -248 -175 -423t-422 -175q-248 0 -423 175t-175 423q0 247 175 422t423 175q247 0 422 -175t175 -422zM698 1150q-189 0 -323 -134t-134 -323t134 -323t323 -134t323 134t134 323t-134 323t-323 134zM748 1009q211 0 211 -211q0 -136 -96 -185l96 -237h-152 l-82 211h-138v-211h-141v633h302zM748 728q70 0 70 70q0 71 -70 71h-161v-141h161z" />
<glyph unicode="&#xaf;" horiz-adv-x="800" d="M100 1450h600v-200h-600v200z" />
<glyph unicode="&#xb0;" horiz-adv-x="700" d="M100 1150q0 51 19.5 96.5t53.5 79.5t79.5 54t97.5 20q51 0 96.5 -20t79.5 -54t54 -79.5t20 -96.5q0 -52 -20 -97.5t-54 -79.5t-79.5 -53.5t-96.5 -19.5q-52 0 -97.5 19.5t-79.5 53.5t-53.5 79.5t-19.5 97.5zM350 1275q-26 0 -48.5 -10t-39 -27t-26.5 -40t-10 -48 q0 -26 9.5 -48.5t26.5 -39.5t39.5 -26.5t48.5 -9.5q25 0 48 10t40 26.5t27 39t10 48.5q0 25 -10 48t-27 40t-40 27t-48 10z" />
<glyph unicode="&#xb1;" d="M100 1000h300v300h200v-300h300v-200h-300v-300h-200v300h-300v200zM100 300h800v-200h-800v200z" />
<glyph unicode="&#xb4;" horiz-adv-x="470" d="M150 1550h220l-120 -300h-150z" />
<glyph unicode="&#xb5;" d="M100 1100h200v-880q51 -10 100 -15t100 -5q200 0 200 250v650h200v-650q0 -450 -400 -450q-100 0 -200 30v-330l-200 -50v1450z" />
<glyph unicode="&#xb6;" horiz-adv-x="1300" d="M800 1200v-1550h-200v850q-500 0 -500 454q0 446 500 446h600v-1750h-200v1550h-200z" />
<glyph unicode="&#xb7;" horiz-adv-x="370" d="M100 795h170v-212h-170v212z" />
<glyph unicode="&#xb8;" horiz-adv-x="650" d="M230 40h100v-100q220 0 220 -170t-220 -170q-113 0 -230 40l30 90q100 -30 200 -30q70 0 70 70t-70 70h-100v200z" />
<glyph unicode="&#xbb;" horiz-adv-x="1221" d="M103 1200h240l327 -500l-330 -504h-240l330 504zM554 1200h240l327 -500l-329 -504h-240l329 504z" />
<glyph unicode="&#xbf;" horiz-adv-x="950" d="M850.012 -255.835q-152.98 -49.9941 -299.963 -49.9941q-449.945 0 -449.945 399.951q0 299.964 299.964 399.951l19.9971 199.976h159.98l19.998 -349.957q-299.964 -48.9941 -299.964 -249.97q0 -199.976 249.97 -199.976q151.981 0 249.97 39.9951zM630.039 850.029 h-249.97v249.97h249.97v-249.97z" />
<glyph unicode="&#xc0;" horiz-adv-x="1100" d="M430 1400h240l430 -1400h-220l-86 300h-488l-86 -300h-220zM550 1150l-187 -650h373zM370 1850h220l50 -300h-150z" />
<glyph unicode="&#xc1;" horiz-adv-x="1100" d="M430 1400h240l430 -1400h-220l-86 300h-488l-86 -300h-220zM550 1150l-187 -650h373zM510 1850h220l-120 -300h-150z" />
<glyph unicode="&#xc2;" horiz-adv-x="1100" d="M430 1400h240l430 -1400h-220l-86 300h-488l-86 -300h-220zM550 1150l-187 -650h373zM450 1850h200l200 -300h-200l-100 150l-100 -150h-200z" />
<glyph unicode="&#xc3;" horiz-adv-x="1100" d="M430 1400h240l430 -1400h-220l-86 300h-488l-86 -300h-220zM550 1150l-187 -650h373zM201 1570q0 261 211 261q118 0 172 -57q53 -56 103 -56q78 0 92 113h120q0 -261 -211 -261q-119 0 -173 56q-56 57 -102 57q-78 0 -92 -113h-120z" />
<glyph unicode="&#xc4;" horiz-adv-x="1100" d="M430 1400h240l430 -1400h-220l-86 300h-488l-86 -300h-220zM550 1150l-187 -650h373zM250 1800h200v-250h-200v250zM650 1800h200v-250h-200v250z" />
<glyph unicode="&#xc5;" horiz-adv-x="1100" d="M430 1400h240l430 -1400h-220l-86 300h-488l-86 -300h-220zM550 1150l-187 -650h373zM350 1700q0 41 16 77.5t43 63.5t63.5 43t77.5 16t77.5 -16t63.5 -43t43 -63.5t16 -77.5t-16 -77.5t-43 -63.5t-63.5 -43t-77.5 -16q-42 0 -78.5 15.5t-63.5 42.5t-42.5 63.5 t-15.5 78.5zM550 1780q-33 0 -56 -23.5t-23 -56.5t23 -56t56 -23t56.5 23t23.5 56t-23.5 56.5t-56.5 23.5z" />
<glyph unicode="&#xc6;" horiz-adv-x="1600" d="M400 1400h1100v-200h-550v-400h500v-200h-500v-400h550v-200h-750v300h-450l-80 -300h-220zM560 1200l-190 -700h380v700h-190z" />
<glyph unicode="&#xc7;" horiz-adv-x="1150" d="M985 1153q-130 47 -335 47q-350 0 -350 -500t350 -500q206 0 336 47l62 -176q-166 -69 -383 -71v-60q220 0 220 -170t-220 -170q-113 0 -230 40l30 90q100 -30 200 -30q70 0 70 70t-70 70h-100v164q-465 52 -465 696q0 700 550 700q227 0 400 -72z" />
<glyph unicode="&#xc8;" d="M100 1400h800v-200h-600v-400h550v-200h-550v-400h600v-200h-800v1400zM320 1850h220l50 -300h-150z" />
<glyph unicode="&#xc9;" d="M100 1400h800v-200h-600v-400h550v-200h-550v-400h600v-200h-800v1400zM460 1850h220l-120 -300h-150z" />
<glyph unicode="&#xca;" d="M100 1400h800v-200h-600v-400h550v-200h-550v-400h600v-200h-800v1400zM400 1850h200l200 -300h-200l-100 150l-100 -150h-200z" />
<glyph unicode="&#xcb;" d="M100 1400h800v-200h-600v-400h550v-200h-550v-400h600v-200h-800v1400zM200 1800h200v-250h-200v250zM600 1800h200v-250h-200v250z" />
<glyph unicode="&#xcc;" horiz-adv-x="400" d="M100 1400h200v-1400h-200v1400zM22 1850h220l50 -300h-150z" />
<glyph unicode="&#xcd;" horiz-adv-x="400" d="M100 1400h200v-1400h-200v1400zM160 1850h220l-120 -300h-150z" />
<glyph unicode="&#xce;" horiz-adv-x="400" d="M100 1400h200v-1400h-200v1400zM102 1850h200l200 -300h-200l-100 150l-100 -150h-200z" />
<glyph unicode="&#xcf;" horiz-adv-x="400" d="M100 1400h200v-1400h-200v1400zM-98 1800h200v-250h-200v250zM302 1800h200v-250h-200v250z" />
<glyph unicode="&#xd0;" horiz-adv-x="1195" d="M95 1400h450q550 0 550 -700t-550 -700h-450v625h-150v150h150v625zM295 1200v-425h150v-150h-150v-425h250q350 0 350 500t-350 500h-250z" />
<glyph unicode="&#xd1;" horiz-adv-x="1150" d="M100 1400h200l550 -990v990h200v-1400h-200l-550 990v-990h-200v1400zM226 1570q0 261 211 261q118 0 172 -57q53 -56 103 -56q78 0 92 113h120q0 -261 -211 -261q-119 0 -173 56q-56 57 -102 57q-78 0 -92 -113h-120z" />
<glyph unicode="&#xd2;" horiz-adv-x="1300" d="M650 1200q-350 0 -350 -500t350 -500t350 500t-350 500zM100 700q0 700 550 700t550 -700t-550 -700t-550 700zM470 1850h220l50 -300h-150z" />
<glyph unicode="&#xd3;" horiz-adv-x="1300" d="M650 1200q-350 0 -350 -500t350 -500t350 500t-350 500zM100 700q0 700 550 700t550 -700t-550 -700t-550 700zM610 1850h220l-120 -300h-150z" />
<glyph unicode="&#xd4;" horiz-adv-x="1300" d="M650 1200q-350 0 -350 -500t350 -500t350 500t-350 500zM100 700q0 700 550 700t550 -700t-550 -700t-550 700zM550 1850h200l200 -300h-200l-100 150l-100 -150h-200z" />
<glyph unicode="&#xd5;" horiz-adv-x="1300" d="M650 1200q-350 0 -350 -500t350 -500t350 500t-350 500zM100 700q0 700 550 700t550 -700t-550 -700t-550 700zM301 1570q0 261 211 261q118 0 172 -57q53 -56 103 -56q78 0 92 113h120q0 -261 -211 -261q-119 0 -173 56q-56 57 -102 57q-78 0 -92 -113h-120z" />
<glyph unicode="&#xd6;" horiz-adv-x="1300" d="M650 1200q-350 0 -350 -500t350 -500t350 500t-350 500zM100 700q0 700 550 700t550 -700t-550 -700t-550 700zM350 1800h200v-250h-200v250zM750 1800h200v-250h-200v250z" />
<glyph unicode="&#xd7;" horiz-adv-x="981" d="M240 1087l250 -246l245 250l143 -141l-246 -249l249 -246l-140 -142l-249 246l-246 -250l-142 141l245 249l-249 246z" />
<glyph unicode="&#xd8;" horiz-adv-x="1300" d="M966 1546l136 -64l-94 -200q192 -170 192 -582q0 -700 -550 -700q-130 0 -229 39l-87 -185l-136 64l94 199q-192 169 -192 583q0 700 550 700q129 0 228 -39zM509 226q64 -26 141 -26q350 0 350 500q0 252 -89 377zM790 1174q-64 26 -140 26q-350 0 -350 -500 q0 -252 89 -377z" />
<glyph unicode="&#xd9;" horiz-adv-x="1150" d="M100 1400h200v-900q0 -300 280 -300q270 0 270 300v900h200v-900q0 -500 -470 -500q-480 0 -480 500v900zM395 1850h220l50 -300h-150z" />
<glyph unicode="&#xda;" horiz-adv-x="1150" d="M100 1400h200v-900q0 -300 280 -300q270 0 270 300v900h200v-900q0 -500 -470 -500q-480 0 -480 500v900zM535 1850h220l-120 -300h-150z" />
<glyph unicode="&#xdb;" horiz-adv-x="1150" d="M100 1400h200v-900q0 -300 280 -300q270 0 270 300v900h200v-900q0 -500 -470 -500q-480 0 -480 500v900zM475 1850h200l200 -300h-200l-100 150l-100 -150h-200z" />
<glyph unicode="&#xdc;" horiz-adv-x="1150" d="M100 1400h200v-900q0 -300 280 -300q270 0 270 300v900h200v-900q0 -500 -470 -500q-480 0 -480 500v900zM275 1800h200v-250h-200v250zM675 1800h200v-250h-200v250z" />
<glyph unicode="&#xdd;" d="M0 1400h230l270 -570l270 570h230l-400 -800v-600h-200v600zM460 1850h220l-120 -300h-150z" />
<glyph unicode="&#xde;" horiz-adv-x="1150" d="M100 1400h200v-250h250q500 0 500 -450t-500 -450h-250v-250h-200v1400zM300 950v-500h250q300 0 300 250t-300 250h-250z" />
<glyph unicode="&#xdf;" horiz-adv-x="1100" d="M100 900q0 500 450 500t450 -400q0 -250 -200 -300q200 -50 200 -300q0 -400 -450 -400h-100v200h100q250 0 250 200t-250 200h-100v200h100q250 0 250 200t-250 200t-250 -300v-900h-200v900z" />
<glyph unicode="&#xe0;" d="M175 1034q162 66 325 66q400 0 400 -400v-600q-100 -100 -400 -100q-400 0 -400 340q0 360 600 360q0 200 -200 200q-134 0 -267 -45zM700 500q-400 0 -400 -160q0 -140 200 -140q51 0 100 5t100 15v280zM320 1550h220l50 -300h-150z" />
<glyph unicode="&#xe1;" d="M175 1034q162 66 325 66q400 0 400 -400v-600q-100 -100 -400 -100q-400 0 -400 340q0 360 600 360q0 200 -200 200q-134 0 -267 -45zM700 500q-400 0 -400 -160q0 -140 200 -140q51 0 100 5t100 15v280zM460 1550h220l-120 -300h-150z" />
<glyph unicode="&#xe2;" d="M175 1034q162 66 325 66q400 0 400 -400v-600q-100 -100 -400 -100q-400 0 -400 340q0 360 600 360q0 200 -200 200q-134 0 -267 -45zM700 500q-400 0 -400 -160q0 -140 200 -140q51 0 100 5t100 15v280zM400 1550h200l200 -300h-200l-100 150l-100 -150h-200z" />
<glyph unicode="&#xe3;" d="M175 1034q162 66 325 66q400 0 400 -400v-600q-100 -100 -400 -100q-400 0 -400 340q0 360 600 360q0 200 -200 200q-134 0 -267 -45zM700 500q-400 0 -400 -160q0 -140 200 -140q51 0 100 5t100 15v280zM151 1270q0 261 211 261q118 0 172 -57q53 -56 103 -56 q78 0 92 113h120q0 -261 -211 -261q-119 0 -173 56q-56 57 -102 57q-78 0 -92 -113h-120z" />
<glyph unicode="&#xe4;" d="M175 1034q162 66 325 66q400 0 400 -400v-600q-100 -100 -400 -100q-400 0 -400 340q0 360 600 360q0 200 -200 200q-134 0 -267 -45zM700 500q-400 0 -400 -160q0 -140 200 -140q51 0 100 5t100 15v280zM200 1500h200v-250h-200v250zM600 1500h200v-250h-200v250z" />
<glyph unicode="&#xe5;" d="M175 1034q162 66 325 66q400 0 400 -400v-600q-100 -100 -400 -100q-400 0 -400 340q0 360 600 360q0 200 -200 200q-134 0 -267 -45zM700 500q-400 0 -400 -160q0 -140 200 -140q51 0 100 5t100 15v280zM300 1400q0 41 16 77.5t43 63.5t63.5 43t77.5 16t77.5 -16 t63.5 -43t43 -63.5t16 -77.5t-16 -77.5t-43 -63.5t-63.5 -43t-77.5 -16q-42 0 -78.5 15.5t-63.5 42.5t-42.5 63.5t-15.5 78.5zM500 1480q-33 0 -56 -23.5t-23 -56.5t23 -56t56 -23t56.5 23t23.5 56t-23.5 56.5t-56.5 23.5z" />
<glyph unicode="&#xe6;" horiz-adv-x="1646" d="M175 1034q162 66 325 66q219 0 318 -120q106 120 318 120q410 0 410 -500q0 -150 -50 -150h-590q0 -250 200 -250q197 0 315 44l38 -185q-104 -59 -353 -59q-150 0 -244 70q-109 -70 -362 -70q-400 0 -400 340q0 360 600 360q0 200 -200 200q-134 0 -267 -45zM700 500 q-400 0 -400 -160q0 -140 200 -140q51 0 100 5t100 15v280zM1346 640q0 260 -210 260q-230 0 -230 -260h440z" />
<glyph unicode="&#xe7;" horiz-adv-x="950" d="M100 600q0 500 450 500q197 0 300 -50l-50 -190q-98 40 -250 40q-250 0 -250 -300v-100q0 -300 250 -300q152 0 250 40l50 -190q-49 -25 -120 -37t-165 -13v-60q220 0 220 -170t-220 -170q-113 0 -230 40l30 90q100 -30 200 -30q70 0 70 70t-70 70h-100v165 q-365 44 -365 495v100z" />
<glyph unicode="&#xe8;" d="M100 600q0 500 430 500q410 0 410 -500q0 -150 -50 -150h-590q0 -250 200 -250q197 0 315 44l38 -185q-104 -59 -353 -59q-400 0 -400 500v100zM740 640q0 260 -210 260q-230 0 -230 -260h440zM340 1550h220l50 -300h-150z" />
<glyph unicode="&#xe9;" d="M100 600q0 500 430 500q410 0 410 -500q0 -150 -50 -150h-590q0 -250 200 -250q197 0 315 44l38 -185q-104 -59 -353 -59q-400 0 -400 500v100zM740 640q0 260 -210 260q-230 0 -230 -260h440zM480 1550h220l-120 -300h-150z" />
<glyph unicode="&#xea;" d="M100 600q0 500 430 500q410 0 410 -500q0 -150 -50 -150h-590q0 -250 200 -250q197 0 315 44l38 -185q-104 -59 -353 -59q-400 0 -400 500v100zM740 640q0 260 -210 260q-230 0 -230 -260h440zM420 1550h200l200 -300h-200l-100 150l-100 -150h-200z" />
<glyph unicode="&#xeb;" d="M100 600q0 500 430 500q410 0 410 -500q0 -150 -50 -150h-590q0 -250 200 -250q197 0 315 44l38 -185q-104 -59 -353 -59q-400 0 -400 500v100zM740 640q0 260 -210 260q-230 0 -230 -260h440zM220 1500h200v-250h-200v250zM620 1500h200v-250h-200v250z" />
<glyph unicode="&#xec;" horiz-adv-x="400" d="M100 1100h200v-1100h-200v1100zM22 1550h220l50 -300h-150z" />
<glyph unicode="&#xed;" horiz-adv-x="400" d="M100 1100h200v-1100h-200v1100zM160 1550h220l-120 -300h-150z" />
<glyph unicode="&#xee;" horiz-adv-x="400" d="M100 1100h200v-1100h-200v1100zM102 1550h200l200 -300h-200l-100 150l-100 -150h-200z" />
<glyph unicode="&#xef;" horiz-adv-x="400" d="M100 1100h200v-1100h-200v1100zM-98 1500h200v-250h-200v250zM302 1500h200v-250h-200v250z" />
<glyph unicode="&#xf0;" d="M550 1320h150v80l200 50v-130h150v-150h-150v-1070q-100 -100 -400 -100q-400 0 -400 450v200q0 450 400 450q99 0 200 -30v100h-150v150zM700 880q-51 10 -100 15t-100 5q-200 0 -200 -250v-200q0 -250 200 -250q51 0 100 5t100 15v660z" />
<glyph unicode="&#xf1;" d="M100 1050q103 50 400 50q400 0 400 -400v-700h-200v700q0 200 -200 200q-51 0 -100 -5t-100 -15v-880h-200v1050zM151 1270q0 261 211 261q118 0 172 -57q53 -56 103 -56q78 0 92 113h120q0 -261 -211 -261q-119 0 -173 56q-56 57 -102 57q-78 0 -92 -113h-120z" />
<glyph unicode="&#xf2;" horiz-adv-x="1100" d="M100 600q0 500 450 500t450 -500v-100q0 -500 -450 -500t-450 500v100zM300 500q0 -300 250 -300t250 300v100q0 300 -250 300t-250 -300v-100zM370 1550h220l50 -300h-150z" />
<glyph unicode="&#xf3;" horiz-adv-x="1100" d="M100 600q0 500 450 500t450 -500v-100q0 -500 -450 -500t-450 500v100zM300 500q0 -300 250 -300t250 300v100q0 300 -250 300t-250 -300v-100zM510 1550h220l-120 -300h-150z" />
<glyph unicode="&#xf4;" horiz-adv-x="1100" d="M100 600q0 500 450 500t450 -500v-100q0 -500 -450 -500t-450 500v100zM300 500q0 -300 250 -300t250 300v100q0 300 -250 300t-250 -300v-100zM450 1550h200l200 -300h-200l-100 150l-100 -150h-200z" />
<glyph unicode="&#xf5;" horiz-adv-x="1100" d="M100 600q0 500 450 500t450 -500v-100q0 -500 -450 -500t-450 500v100zM300 500q0 -300 250 -300t250 300v100q0 300 -250 300t-250 -300v-100zM201 1270q0 261 211 261q118 0 172 -57q53 -56 103 -56q78 0 92 113h120q0 -261 -211 -261q-119 0 -173 56q-56 57 -102 57 q-78 0 -92 -113h-120z" />
<glyph unicode="&#xf6;" horiz-adv-x="1100" d="M100 600q0 500 450 500t450 -500v-100q0 -500 -450 -500t-450 500v100zM300 500q0 -300 250 -300t250 300v100q0 300 -250 300t-250 -300v-100zM250 1500h200v-250h-200v250zM650 1500h200v-250h-200v250z" />
<glyph unicode="&#xf7;" d="M100 800h800v-200h-800v200zM400 400h200v-250h-200v250zM400 1250h200v-250h-200v250z" />
<glyph unicode="&#xf8;" horiz-adv-x="1100" d="M811 1322l136 -64l-107 -239q160 -121 160 -418v-100q0 -500 -450 -500q-86 0 -155 18l-106 -239l-136 64l106 239q-159 120 -159 418v100q0 500 450 500q85 0 154 -18zM800 601q0 138 -52 211l-269 -604q29 -7 71 -7q250 0 250 300v100zM620 894q-16 4 -33.5 5.5 t-36.5 1.5q-250 0 -250 -300v-100q0 -138 51 -211z" />
<glyph unicode="&#xf9;" d="M100 1100h200v-700q0 -200 200 -200q51 0 100 5t100 15v880h200v-1000q-100 -100 -400 -100q-400 0 -400 400v700zM320 1550h220l50 -300h-150z" />
<glyph unicode="&#xfa;" d="M100 1100h200v-700q0 -200 200 -200q51 0 100 5t100 15v880h200v-1000q-100 -100 -400 -100q-400 0 -400 400v700zM460 1550h220l-120 -300h-150z" />
<glyph unicode="&#xfb;" d="M100 1100h200v-700q0 -200 200 -200q51 0 100 5t100 15v880h200v-1000q-100 -100 -400 -100q-400 0 -400 400v700zM400 1550h200l200 -300h-200l-100 150l-100 -150h-200z" />
<glyph unicode="&#xfc;" d="M100 1100h200v-700q0 -200 200 -200q51 0 100 5t100 15v880h200v-1000q-100 -100 -400 -100q-400 0 -400 400v700zM200 1500h200v-250h-200v250zM600 1500h200v-250h-200v250z" />
<glyph unicode="&#xfd;" d="M100 1100h200v-650q0 -250 200 -250q51 0 100 5t100 15v880h200v-1150q0 -400 -400 -400q-197 0 -350 50l50 200q103 -50 300 -50q200 0 200 200v80q-101 -30 -200 -30q-400 0 -400 450v650zM460 1550h220l-120 -300h-150z" />
<glyph unicode="&#xfe;" d="M700 650q0 250 -200 250q-51 0 -100 -5t-100 -15v-660q51 -10 100 -15t100 -5q200 0 200 250v200zM100 1400l200 50v-380q100 30 200 30q400 0 400 -400v-300q0 -400 -400 -400q-100 0 -200 30v-430l-200 -50v1850z" />
<glyph unicode="&#xff;" d="M100 1100h200v-650q0 -250 200 -250q51 0 100 5t100 15v880h200v-1150q0 -400 -400 -400q-197 0 -350 50l50 200q103 -50 300 -50q200 0 200 200v80q-101 -30 -200 -30q-400 0 -400 450v650zM200 1500h200v-250h-200v250zM600 1500h200v-250h-200v250z" />
<glyph unicode="&#x131;" horiz-adv-x="400" d="M100 1100h200v-1100h-200v1100z" />
<glyph unicode="&#x152;" horiz-adv-x="1750" d="M900 1400h750v-200h-550v-400h500v-200h-500v-400h550v-200h-750v94q-115 -94 -299 -94q-501 0 -501 700t501 700q184 0 299 -94v94zM900 779q-22 421 -299 421q-301 0 -301 -500t301 -500q276 0 299 420v159z" />
<glyph unicode="&#x153;" horiz-adv-x="1740" d="M100 600q0 500 450 500q234 0 347 -137q108 137 333 137q410 0 410 -500q0 -150 -50 -150h-590q0 -250 200 -250q197 0 315 44l38 -185q-104 -59 -353 -59q-206 0 -306 132q-113 -132 -344 -132q-450 0 -450 500v100zM300 500q0 -300 250 -300t250 300v100 q0 300 -250 300t-250 -300v-100zM1440 640q0 260 -210 260q-230 0 -230 -260h440z" />
<glyph unicode="&#x160;" horiz-adv-x="1077" d="M882 1154q-119 46 -275 46q-280 0 -280 -200q0 -150 230 -200q420 -50 420 -400q0 -400 -470 -400q-250 0 -407 66l52 192q69 -23 157 -38t198 -20q270 0 270 200q0 151 -220 200q-430 49 -430 400q0 400 480 400q190 0 321 -61zM239 1850h200l100 -150l100 150h200 l-200 -300h-200z" />
<glyph unicode="&#x161;" horiz-adv-x="954" d="M150 240q127 -40 350 -40q200 0 200 120q0 100 -200 130q-380 30 -380 330q0 320 380 320q147 0 330 -50l-50 -190q-127 40 -280 40q-180 0 -180 -120q0 -100 180 -130q400 -30 400 -330q0 -320 -400 -320q-217 0 -400 50zM200 1550h200l100 -150l100 150h200l-200 -300 h-200z" />
<glyph unicode="&#x178;" d="M0 1400h230l270 -570l270 570h230l-400 -800v-600h-200v600zM200 1800h200v-250h-200v250zM600 1800h200v-250h-200v250z" />
<glyph unicode="&#x17d;" horiz-adv-x="1100" d="M130 1400h840v-200l-620 -1000h650v-200h-900v200l620 1000h-590v200zM250 1850h200l100 -150l100 150h200l-200 -300h-200z" />
<glyph unicode="&#x17e;" horiz-adv-x="950" d="M120 1100h710v-200l-500 -700h520v-200h-750v200l500 700h-480v200zM175 1550h200l100 -150l100 150h200l-200 -300h-200z" />
<glyph unicode="&#x17f;" horiz-adv-x="695" d="M100 1050q0 400 350 400q119 0 190 -50l-50 -180q-71 30 -140 30q-150 0 -150 -200v-1050h-200v1050z" />
<glyph unicode="&#x192;" horiz-adv-x="736" d="M-54 1050h150q0 400 350 400q119 0 190 -50l-50 -180q-71 30 -140 30q-150 0 -150 -200h300v-200h-300v-900q0 -400 -400 -400h-50v200h50q200 0 200 200v900h-150v200z" />
<glyph unicode="&#x251;" d="M900 50q-100 -50 -400 -50q-400 0 -400 450v200q0 450 400 450q299 0 400 -30v-1020zM700 880q-51 10 -100 15t-100 5q-200 0 -200 -250v-200q0 -250 200 -250q51 0 100 5t100 15v660z" />
<glyph unicode="&#x2c6;" horiz-adv-x="800" d="M300 1550h200l200 -300h-200l-100 150l-100 -150h-200z" />
<glyph unicode="&#x2c7;" horiz-adv-x="800" d="M100 1550h200l100 -150l100 150h200l-200 -300h-200z" />
<glyph unicode="&#x2c9;" horiz-adv-x="800" d="M100 1450h600v-200h-600v200z" />
<glyph unicode="&#x2d8;" horiz-adv-x="750" d="M250 1540q0 -130 120 -130q130 0 130 130h150q0 -300 -280 -300q-270 0 -270 300h150z" />
<glyph unicode="&#x2d9;" horiz-adv-x="400" d="M100 1500h200v-250h-200v250z" />
<glyph unicode="&#x2da;" horiz-adv-x="600" d="M100 1400q0 41 16 77.5t43 63.5t63.5 43t77.5 16t77.5 -16t63.5 -43t43 -63.5t16 -77.5t-16 -77.5t-43 -63.5t-63.5 -43t-77.5 -16q-42 0 -78.5 15.5t-63.5 42.5t-42.5 63.5t-15.5 78.5zM300 1480q-33 0 -56 -23.5t-23 -56.5t23 -56t56 -23t56.5 23t23.5 56t-23.5 56.5 t-56.5 23.5z" />
<glyph unicode="&#x2db;" horiz-adv-x="650" d="M350 0q-100 -109 -100 -190q0 -54 35.5 -77t107.5 -23q56 0 127 20l30 -90q-110 -65 -216 -65q-117 0 -175.5 52.5t-58.5 152.5q0 160 150 220h100z" />
<glyph unicode="&#x2dc;" horiz-adv-x="898" d="M100 1270q0 261 211 261q118 0 172 -57q53 -56 103 -56q78 0 92 113h120q0 -261 -211 -261q-119 0 -173 56q-56 57 -102 57q-78 0 -92 -113h-120z" />
<glyph unicode="&#x2dd;" horiz-adv-x="770" d="M150 1550h220l-120 -300h-150zM450 1550h220l-120 -300h-150z" />
<glyph unicode="&#x1e9e;" horiz-adv-x="1100" d="M100 900q0 500 470 500q480 0 480 -400q0 -250 -200 -300q200 -50 200 -300q0 -400 -450 -400h-150v200h150q250 0 250 200t-250 200h-150v200h150q250 0 250 200t-280 200q-270 0 -270 -300v-900h-200v900z" />
<glyph unicode="&#x2013;" horiz-adv-x="800" d="M100 800h600v-200h-600v200z" />
<glyph unicode="&#x2014;" d="M100 800h800v-200h-800v200z" />
<glyph unicode="&#x2018;" horiz-adv-x="400" d="M100 1250q0 150 150 200l50 -80q-100 -70 -100 -120h100v-250h-200v250z" />
<glyph unicode="&#x2019;" horiz-adv-x="400" d="M100 1450h200v-250q0 -151 -150 -200l-50 80q100 70 100 120h-100v250z" />
<glyph unicode="&#x201a;" horiz-adv-x="400" d="M100 225h200v-250q0 -151 -150 -200l-50 80q100 70 100 120h-100v250z" />
<glyph unicode="&#x201c;" horiz-adv-x="700" d="M400 1250q0 150 150 200l50 -80q-100 -70 -100 -120h100v-250h-200v250zM100 1250q0 150 150 200l50 -80q-100 -70 -100 -120h100v-250h-200v250z" />
<glyph unicode="&#x201d;" horiz-adv-x="700" d="M100 1450h200v-250q0 -151 -150 -200l-50 80q100 70 100 120h-100v250zM400 1450h200v-250q0 -151 -150 -200l-50 80q100 70 100 120h-100v250z" />
<glyph unicode="&#x201e;" horiz-adv-x="700" d="M100 225h200v-250q0 -151 -150 -200l-50 80q100 70 100 120h-100v250zM400 225h200v-250q0 -151 -150 -200l-50 80q100 70 100 120h-100v250z" />
<glyph unicode="&#x2020;" d="M400 1600h200v-400h300v-200h-300v-1200h-200v1200h-300v200h300v400z" />
<glyph unicode="&#x2021;" d="M400 1600h200v-400h300v-200h-300v-600h300v-200h-300v-400h-200v400h-300v200h300v600h-300v200h300v400z" />
<glyph unicode="&#x2022;" horiz-adv-x="500" d="M100 850h300v-300h-300v300z" />
<glyph unicode="&#x2026;" horiz-adv-x="1100" d="M100 250h200v-250h-200v250zM450 250h200v-250h-200v250zM800 250h200v-250h-200v250z" />
<glyph unicode="&#x2030;" horiz-adv-x="2200" d="M1000 1400h200l-700 -1400h-200zM100 1100q0 61 24 116t64.5 95.5t95 64.5t116.5 24q61 0 116 -24t95.5 -64.5t64.5 -95.5t24 -116q0 -62 -24 -116.5t-64.5 -95t-95.5 -64.5t-116 -24q-62 0 -116.5 24t-95 64.5t-64.5 95t-24 116.5zM400 1229q-27 0 -50 -10.5t-40.5 -28 t-27.5 -41t-10 -49.5q0 -27 10 -50t27.5 -40.5t40.5 -27.5t50 -10q26 0 49.5 10t41 27.5t28 40.5t10.5 50q0 26 -10.5 49.5t-28 41t-41 28t-49.5 10.5zM800 300q0 61 24 116t64.5 95.5t95 64.5t116.5 24q61 0 116 -24t95.5 -64.5t64.5 -95.5t24 -116q0 -62 -24 -116.5 t-64.5 -95t-95.5 -64.5t-116 -24q-62 0 -116.5 24t-95 64.5t-64.5 95t-24 116.5zM1100 429q-27 0 -50 -10.5t-40.5 -28t-27.5 -41t-10 -49.5q0 -27 10 -50t27.5 -40.5t40.5 -27.5t50 -10q26 0 49.5 10t41 27.5t28 40.5t10.5 50q0 26 -10.5 49.5t-28 41t-41 28t-49.5 10.5z M1500 300q0 61 24 116t64.5 95.5t95 64.5t116.5 24q61 0 116 -24t95.5 -64.5t64.5 -95.5t24 -116q0 -62 -24 -116.5t-64.5 -95t-95.5 -64.5t-116 -24q-62 0 -116.5 24t-95 64.5t-64.5 95t-24 116.5zM1800 429q-27 0 -50 -10.5t-40.5 -28t-27.5 -41t-10 -49.5q0 -27 10 -50 t27.5 -40.5t40.5 -27.5t50 -10q26 0 49.5 10t41 27.5t28 40.5t10.5 50q0 26 -10.5 49.5t-28 41t-41 28t-49.5 10.5z" />
<glyph unicode="&#x2039;" horiz-adv-x="770" d="M427 1200h240l-327 -500l330 -504h-240l-330 504z" />
<glyph unicode="&#x203a;" horiz-adv-x="770" d="M103 1200h240l327 -500l-330 -504h-240l330 504z" />
<glyph unicode="&#x20ac;" horiz-adv-x="1250" d="M100 950h121q88 450 529 450q227 0 400 -72l-65 -175q-130 47 -335 47q-248 0 -320 -250h470l-50 -150h-446q-2 -23 -3 -48.5t-1 -51.5t1 -51.5t3 -48.5h446l-50 -150h-370q72 -250 320 -250q206 0 336 47l62 -176q-175 -71 -398 -71q-441 0 -529 450h-121v150h103 q-3 48 -3 100t3 100h-103v150z" />
<glyph unicode="&#x2122;" horiz-adv-x="1294" d="M100 1400h429v-126h-151v-463h-135v463h-143v126zM605 1400h210l84 -421l85 421h210v-589h-126v421l-84 -421h-169l-84 421v-421h-126v589z" />
<glyph unicode="&#xe000;" horiz-adv-x="1100" d="M0 1100h1100v-1100h-1100v1100z" />
</font>
</defs>
</svg>
